:SAMPLES-PER-SECOND 30
:FRAME-RANGE 1-1086
:FULLY-SPECIFIED
:DEGREES
340
root  -67.561 37.4751 50.4152 12.0164 -44.4473 -7.0052
RightUpLeg  -28.4451 15.0306 -17.8509
RightLeg  23.3558 6.55443 2.88282
RightFoot  -3.86574 -0.62889 9.2031
RightToes  1.21801e-010 1.2921e-014 -6.02303e-014
Spine  0.26765 -4.80621 -6.07338
Spine1  5.35904 -5.30554 2.26501
HEad  23.6586 -59.067 -1.4063
LeftShoulder1  1.93615 -4.55135 -18.3219
LeftArm  -2.35733 3.63403 -49.1269
LeftForeArm  33.9672 -2.18765 -12.295
LeftHand  0.00156572 5.89137 6.15511
RightShoulder  1.21838 0.434919 26.4848
RightArm  -12.1282 7.44433 57.4342
RightForeArm  61.1718 3.53456 10.6297
RightHand  0.0596347 -5.84511 -18.3893
LeftUpLeg  -18.9897 -7.35264 16.7013
LeftLeg  31.7584 -11.2962 -7.10691
LeftFoot  -20.1776 -0.38459 -6.53696
LeftToes  3.79492e-011 -8.60219e-011 1.56273e-011
341
root  -66.484 37.8504 50.8844 13.1027 -47.5725 -7.78133
RightUpLeg  -27.3719 12.2764 -14.5191
RightLeg  23.4458 0.57563 0.0585967
RightFoot  -6.66848 -0.365294 7.82713
RightToes  1.21801e-010 1.2921e-014 -6.02303e-014
Spine  0.0816299 -4.87082 -6.20571
Spine1  5.25202 -5.35083 2.15723
HEad  24.9539 -59.8287 -2.704
LeftShoulder1  1.86109 -4.16962 -18.5956
LeftArm  -3.29704 3.10697 -49.6544
LeftForeArm  33.1151 -2.32476 -12.0549
LeftHand  -0.00097531 5.82775 6.26655
RightShoulder  1.20479 0.399196 26.427
RightArm  -14.0009 5.96182 56.6899
RightForeArm  63.2663 0.241231 9.72331
RightHand  0.0728761 -5.95979 -17.6048
LeftUpLeg  -18.3603 -7.92639 14.769
LeftLeg  29.6864 -7.99289 -4.55256
LeftFoot  -18.8118 -0.287667 -6.12812
LeftToes  3.79492e-011 -8.60219e-011 1.56273e-011
342
root  -65.5184 38.2497 51.3359 14.4471 -51.0517 -8.92969
RightUpLeg  -25.7402 9.21646 -10.5709
RightLeg  23.3802 -3.18611 -1.72379
RightFoot  -7.86846 -0.276723 7.35061
RightToes  1.21801e-010 1.2921e-014 -6.02303e-014
Spine  -0.257559 -4.66548 -5.71664
Spine1  5.11593 -5.01426 1.57875
HEad  24.364 -59.7271 -2.24635
LeftShoulder1  1.8116 -3.94419 -18.6937
LeftArm  -3.7242 2.91604 -50.2976
LeftForeArm  31.1763 -2.46557 -11.9413
LeftHand  -0.0193931 5.4666 5.96127
RightShoulder  1.21837 0.449648 26.3516
RightArm  -16.5154 4.41628 55.998
RightForeArm  66.1681 -3.17481 8.26737
RightHand  0.0780702 -6.03869 -16.6243
LeftUpLeg  -17.2459 -6.87005 13.138
LeftLeg  27.0765 -5.73763 -2.83179
LeftFoot  -17.1424 -0.177924 -5.53499
LeftToes  3.79492e-011 -8.60219e-011 1.56273e-011
343
root  -64.6592 38.5782 51.7602 15.7256 -54.5438 -9.94971
RightUpLeg  -23.5833 5.81333 -6.9416
RightLeg  23.3717 -4.44029 -2.31457
RightFoot  -9.23495 -0.191602 6.99597
RightToes  1.21801e-010 1.2921e-014 -6.02303e-014
Spine  -1.00882 -4.50722 -5.50583
Spine1  5.24231 -4.72769 1.03903
HEad  23.0465 -58.8237 -1.09058
LeftShoulder1  1.78394 -3.76582 -18.9512
LeftArm  -4.14962 2.85009 -50.9319
LeftForeArm  29.939 -2.42248 -11.8279
LeftHand  -0.0357287 5.11164 5.75712
RightShoulder  1.22808 0.519604 26
RightArm  -19.4813 3.07169 55.5182
RightForeArm  69.1566 -5.83248 6.52274
RightHand  0.110972 -6.29895 -16.1975
LeftUpLeg  -16.1808 -5.274 11.5272
LeftLeg  24.5239 -3.95876 -1.6259
LeftFoot  -15.6055 -0.0968786 -5.11056
LeftToes  3.79492e-011 -8.60219e-011 1.56273e-011
344
root  -63.8558 38.8287 52.1697 16.5256 -58.1964 -10.4773
RightUpLeg  -21.179 2.19125 -3.91266
RightLeg  23.5598 -4.71547 -2.46319
RightFoot  -10.4409 -0.127703 7.20565
RightToes  1.21801e-010 1.2921e-014 -6.02303e-014
Spine  -1.63181 -4.38245 -5.45636
Spine1  5.11199 -4.44801 0.355562
HEad  21.4991 -57.5474 0.249607
LeftShoulder1  1.73572 -3.47875 -19.3345
LeftArm  -3.33784 2.82442 -51.1562
LeftForeArm  28.7814 -2.63588 -12.0292
LeftHand  -0.0524702 4.68015 5.23924
RightShoulder  1.23936 0.576395 25.8156
RightArm  -22.586 1.74034 54.9561
RightForeArm  71.202 -5.50826 5.02749
RightHand  0.141835 -6.56604 -15.6845
LeftUpLeg  -15.1372 -4.04781 9.60203
LeftLeg  22.1033 -1.67001 -0.401731
LeftFoot  -14.142 -0.0282963 -4.62147
LeftToes  3.79492e-011 -8.60219e-011 1.56273e-011
345
root  -63.1268 38.9852 52.5511 16.9765 -62.0923 -10.758
RightUpLeg  -18.2583 -0.307394 -1.95719
RightLeg  23.8191 -4.77471 -2.51781
RightFoot  -11.9211 -0.0425888 7.59071
RightToes  1.21801e-010 1.2921e-014 -6.02303e-014
Spine  -2.47296 -4.19648 -5.62918
Spine1  5.37521 -4.11205 -0.34206
HEad  19.9022 -56.2587 1.59372
LeftShoulder1  1.72229 -3.36704 -19.5784
LeftArm  -2.87475 2.92418 -51.4879
LeftForeArm  28.5438 -2.78471 -12.1543
LeftHand  -0.0602742 4.40712 4.81094
RightShoulder  1.23048 0.564821 25.6738
RightArm  -25.2801 0.899958 54.3704
RightForeArm  71.8243 -5.24876 3.60794
RightHand  0.190261 -6.99021 -15.1584
LeftUpLeg  -14.2422 -2.40494 7.37654
LeftLeg  20.2359 0.411545 0.906819
LeftFoot  -12.9199 0.0233898 -3.92091
LeftToes  3.79492e-011 -8.60219e-011 1.56273e-011
346
root  -62.4463 39.0744 52.9105 17.4955 -66.0612 -11.1062
RightUpLeg  -15.2366 -2.22411 -0.648329
RightLeg  24.2822 -5.06144 -2.70678
RightFoot  -13.1769 0.0235542 7.05002
RightToes  1.21801e-010 1.2921e-014 -6.02303e-014
Spine  -3.48516 -4.03349 -5.64502
Spine1  5.7167 -3.80199 -1.02094
HEad  18.8567 -54.6389 2.46772
LeftShoulder1  1.65087 -2.99283 -20.0061
LeftArm  -1.9588 2.88718 -51.3998
LeftForeArm  28.3585 -3.02661 -12.3443
LeftHand  -0.0531288 4.50101 4.25998
RightShoulder  1.25366 0.64339 25.631
RightArm  -27.4731 0.373451 53.7159
RightForeArm  71.2567 -5.06745 2.38905
RightHand  0.287901 -7.58799 -16.1689
LeftUpLeg  -13.7464 -0.308572 5.27422
LeftLeg  18.8748 2.17148 1.89888
LeftFoot  -11.929 0.0548935 -3.23949
LeftToes  3.79492e-011 -8.60219e-011 1.56273e-011
347
root  -61.8213 39.1416 53.2379 18.5681 -70.4077 -12.2333
RightUpLeg  -11.79 -3.68123 0.166206
RightLeg  24.4115 -5.17962 -2.77961
RightFoot  -13.99 0.0668802 6.9949
RightToes  1.21801e-010 1.2921e-014 -6.02303e-014
Spine  -4.57431 -3.72183 -5.32272
Spine1  6.26398 -3.32616 -1.78471
HEad  18.1763 -52.6982 3.25206
LeftShoulder1  1.5626 -2.57018 -20.4148
LeftArm  -1.76079 2.69077 -51.1438
LeftForeArm  28.8399 -2.56901 -12.456
LeftHand  -0.0568447 4.29465 3.92548
RightShoulder  1.28133 0.741338 25.5478
RightArm  -29.2088 0.16364 53.4036
RightForeArm  71.2645 -4.89031 1.34063
RightHand  0.286618 -7.52323 -16.5492
LeftUpLeg  -13.2036 1.33536 3.63408
LeftLeg  17.7599 4.67173 2.74747
LeftFoot  -10.9629 0.0744034 -2.62094
LeftToes  3.79492e-011 -8.60219e-011 1.56273e-011
348
root  -61.2325 39.1828 53.5391 20.9057 -74.7661 -14.7529
RightUpLeg  -8.17725 -5.4197 0.655864
RightLeg  24.6252 -5.39891 -2.91339
RightFoot  -15.5936 0.119323 6.05919
RightToes  1.21801e-010 1.2921e-014 -6.02303e-014
Spine  -5.38116 -3.30118 -4.65306
Spine1  6.38076 -2.7738 -2.512
HEad  18.7587 -50.5721 2.82562
LeftShoulder1  1.50478 -2.24578 -20.9614
LeftArm  -0.786252 2.48895 -50.566
LeftForeArm  28.1602 -1.96795 -12.8105
LeftHand  -0.0482898 4.53229 3.6638
RightShoulder  1.32547 0.86607 25.6723
RightArm  -30.2433 0.031762 52.9145
RightForeArm  72.0516 -4.74378 0.661127
RightHand  0.262573 -7.38543 -16.3041
LeftUpLeg  -12.9092 1.90631 2.36773
LeftLeg  17.1721 8.37542 3.86307
LeftFoot  -9.91551 0.0818005 -1.79187
LeftToes  3.79492e-011 -8.60219e-011 1.56273e-011
349
root  -60.7005 39.2159 53.8176 25.5026 -79.0962 -19.6324
RightUpLeg  -4.46355 -6.58997 0.555292
RightLeg  24.4941 -5.56399 -2.97969
RightFoot  -16.2973 0.149501 6.00481
RightToes  1.21801e-010 1.2921e-014 -6.02303e-014
Spine  -6.42863 -2.75951 -3.78842
Spine1  6.83677 -2.11203 -3.15735
HEad  19.4314 -48.4425 2.53593
LeftShoulder1  1.40325 -1.78548 -21.4461
LeftArm  -0.71809 1.80735 -50.2173
LeftForeArm  28.6145 -0.269289 -13.0639
LeftHand  -0.0449192 4.63648 3.55598
RightShoulder  1.36899 1.01408 25.595
RightArm  -30.2986 -0.288827 52.7203
RightForeArm  72.389 -4.72706 0.641936
RightHand  0.299345 -7.64963 -16.3086
LeftUpLeg  -12.5991 1.98875 1.33456
LeftLeg  16.7991 12.4971 5.09888
LeftFoot  -9.03551 0.085819 -1.569
LeftToes  3.79492e-011 -8.60219e-011 1.56273e-011
350
root  -60.2076 39.2444 54.0418 35.6232 -83.2517 -29.9505
RightUpLeg  -0.782411 -7.64823 -0.215908
RightLeg  23.609 -4.88806 -2.5509
RightFoot  -17.2182 0.176879 5.71702
RightToes  1.21801e-010 1.2921e-014 -6.02303e-014
Spine  -7.78865 -2.21677 -3.01154
Spine1  7.65521 -1.41704 -3.82429
HEad  19.8433 -46.3746 2.44122
LeftShoulder1  1.28499 -1.30855 -21.7478
LeftArm  -0.972224 1.11707 -49.8998
LeftForeArm  28.9936 1.4223 -13.1468
LeftHand  -0.0397797 4.76414 3.13405
RightShoulder  1.44291 1.24272 25.6403
RightArm  -29.9548 -0.191473 52.6501
RightForeArm  72.6517 -4.74949 0.835717
RightHand  0.296475 -7.6198 -16.3695
LeftUpLeg  -12.475 3.48546 0.551204
LeftLeg  16.4347 15.3481 5.49894
LeftFoot  -8.26897 0.0781255 -1.06113
LeftToes  3.79492e-011 -8.60219e-011 1.56273e-011
351
root  -59.7105 39.2607 54.2207 72.3003 -86.8626 -66.6119
RightUpLeg  2.24644 -8.06079 -1.61642
RightLeg  22.4276 -3.23709 -1.68063
RightFoot  -17.8776 0.225307 6.06468
RightToes  1.21801e-010 1.2921e-014 -6.02303e-014
Spine  -8.97344 -1.61646 -2.38366
Spine1  8.00804 -0.65821 -4.55861
HEad  20.5059 -43.7626 1.92256
LeftShoulder1  1.16122 -0.819032 -22.0688
LeftArm  -1.08227 0.766879 -49.3771
LeftForeArm  29.3062 2.81296 -13.1929
LeftHand  -0.0373504 4.84478 2.95708
RightShoulder  1.49426 1.39292 25.7301
RightArm  -29.2562 -0.389722 52.9294
RightForeArm  72.9827 -4.81582 1.30517
RightHand  0.231304 -7.15343 -16.3592
LeftUpLeg  -12.5365 4.05841 -0.376698
LeftLeg  15.9308 19.3558 6.28624
LeftFoot  -7.3556 0.0752555 -0.892424
LeftToes  3.79492e-011 -8.60219e-011 1.56273e-011
